<svg width="480" height="21" viewBox="0 0 480 21" fill="none" xmlns="http://www.w3.org/2000/svg">
<path d="M255.052 15.454L252.352 12.933C252.139 12.734 251.794 12.734 251.581 12.933L247 17.201V17.782C247 18.324 247.475 18.765 248.055 18.765H262.82C263.4 18.765 263.875 18.324 263.875 17.782V17.201L259.294 12.931C259.08 12.734 258.734 12.734 258.523 12.931L255.823 15.452C255.61 15.652 255.265 15.652 255.052 15.454ZM260.791 11.536L263.49 14.057C263.702 14.256 263.875 14.18 263.875 13.889V8.465C263.875 8.173 263.702 8.098 263.49 8.297L260.791 10.818C260.577 11.016 260.577 11.337 260.791 11.536ZM248.055 4C247.475 4 247 4.443 247 4.984V5.161L255.011 12.665C255.223 12.864 255.567 12.864 255.779 12.665L263.875 5.072V4.984C263.875 4.443 263.4 4 262.82 4H248.055ZM247 8.465V13.889C247 14.18 247.173 14.256 247.385 14.057L250.084 11.536C250.298 11.337 250.298 11.016 250.084 10.817L247.385 8.297C247.173 8.098 247 8.173 247 8.465Z" fill="black"/>
<g clip-path="url(#clip0_1_146)">
<path d="M302.875 3H290.125C288.956 3 288 3.957 288 5.125V17.875C288 19.045 288.956 20 290.125 20H296.574V13.904H294.537V11.249H296.574V9.919C296.574 7.868 298.087 6.262 300.019 6.262H301.896V9.26H300.217C299.779 9.26 299.648 9.512 299.648 9.861V11.249H301.896V13.904H299.648V20H302.875C304.045 20 305 19.045 305 17.875V5.125C305 3.957 304.045 3 302.875 3Z" fill="black"/>
</g>
<g clip-path="url(#clip1_1_146)">
<path d="M347 5.731C346.337 6.024 345.626 6.223 344.879 6.312C345.641 5.855 346.227 5.131 346.502 4.27C345.79 4.693 344.999 5 344.158 5.165C343.484 4.448 342.523 4 341.462 4C339.423 4 337.769 5.652 337.769 7.692C337.769 7.981 337.801 8.263 337.865 8.534C334.795 8.379 332.074 6.909 330.253 4.676C329.935 5.221 329.753 5.856 329.753 6.531C329.753 7.813 330.405 8.943 331.396 9.605C330.791 9.586 330.221 9.42 329.723 9.144C329.723 9.159 329.723 9.174 329.723 9.19C329.723 10.979 330.996 12.473 332.685 12.811C332.375 12.895 332.049 12.94 331.712 12.94C331.475 12.94 331.243 12.919 331.018 12.875C331.487 14.343 332.852 15.41 334.467 15.44C333.204 16.43 331.612 17.02 329.882 17.02C329.583 17.02 329.29 17.002 329.001 16.967C330.635 18.016 332.576 18.626 334.662 18.626C341.454 18.626 345.169 12.999 345.169 8.12C345.169 7.959 345.165 7.799 345.157 7.641C345.878 7.123 346.505 6.472 347 5.731Z" fill="black"/>
</g>
<path d="M377.816 10.982C377.816 10.982 379.414 10.858 379.414 8.906C379.415 6.953 378.107 6 376.451 6H371V16.912H376.451C376.451 16.912 379.778 17.022 379.778 13.69C379.778 13.69 379.923 10.982 377.816 10.982ZM373.402 7.94H376.45C376.45 7.94 377.191 7.94 377.191 9.076C377.191 10.211 376.755 10.376 376.261 10.376H373.402V7.94ZM376.296 14.973H373.402V12.056H376.45C376.45 12.056 377.554 12.042 377.554 13.554C377.555 14.831 376.73 14.963 376.296 14.973ZM384.215 8.777C380.188 8.777 380.192 12.968 380.192 12.968C380.192 12.968 379.915 17.141 384.215 17.141C384.215 17.141 387.799 17.355 387.799 14.239H385.957C385.957 14.239 386.018 15.413 384.277 15.413C384.277 15.413 382.432 15.542 382.432 13.513H387.861C387.861 13.512 388.454 8.777 384.215 8.777ZM385.854 12.056H382.414C382.414 12.056 382.639 10.376 384.257 10.376C385.873 10.375 385.854 12.056 385.854 12.056ZM386.282 6.643H381.962V7.988H386.282V6.643Z" fill="black"/>
<g clip-path="url(#clip2_1_146)">
<path d="M419.924 8.985C418.696 6.802 417.383 5.023 417.286 4.893C415.306 5.83 413.828 7.654 413.367 9.852C413.553 9.856 416.513 9.891 419.924 8.985ZM420.808 11.371C420.901 11.341 420.995 11.313 421.088 11.287C420.91 10.883 420.715 10.479 420.511 10.079C416.855 11.174 413.344 11.095 413.22 11.091C413.218 11.166 413.215 11.241 413.215 11.317C413.215 13.143 413.905 14.807 415.037 16.066C415.036 16.064 415.033 16.059 415.033 16.059C415.033 16.059 416.976 12.611 420.808 11.371ZM415.951 16.916L415.952 16.912C415.9 16.871 415.844 16.834 415.792 16.79C415.886 16.866 415.951 16.916 415.951 16.916ZM418.615 4.421C418.608 4.423 418.603 4.424 418.596 4.425C418.607 4.423 418.615 4.422 418.615 4.421ZM425.007 5.986C423.757 4.884 422.115 4.214 420.317 4.214C419.739 4.214 419.18 4.284 418.644 4.414C418.752 4.557 420.084 6.328 421.299 8.557C423.976 7.554 424.988 6.016 425.007 5.986ZM420.316 19.633C415.724 19.633 412 15.909 412 11.316C412 6.723 415.724 3 420.316 3C424.908 3 428.632 6.724 428.632 11.316C428.632 15.908 424.909 19.633 420.316 19.633ZM421.524 12.479C417.356 13.931 415.98 16.854 415.952 16.913C417.157 17.855 418.669 18.421 420.316 18.421C421.299 18.421 422.237 18.219 423.088 17.858C422.983 17.236 422.57 15.06 421.571 12.465C421.556 12.469 421.541 12.474 421.524 12.479ZM421.844 9.616C422.011 9.954 422.169 10.299 422.317 10.646C422.37 10.768 422.421 10.891 422.47 11.012C424.923 10.704 427.339 11.227 427.417 11.245C427.4 9.559 426.798 8.015 425.802 6.805C425.787 6.827 424.648 8.471 421.844 9.616ZM422.902 12.135C423.835 14.697 424.214 16.783 424.285 17.207C425.879 16.13 427.014 14.424 427.33 12.443C427.188 12.398 425.199 11.767 422.902 12.135Z" fill="black"/>
</g>
<g clip-path="url(#clip3_1_146)">
<path d="M466.638 11.499C466.638 14.337 464.335 16.638 461.498 16.638C458.66 16.638 456.36 14.337 456.36 11.499C456.36 11.161 456.393 10.831 456.456 10.511H453V17.342C453 18.809 454.189 19.998 455.656 19.998H467.342C468.806 19.998 469.998 18.809 469.998 17.342V10.511H466.542C466.605 10.831 466.638 11.161 466.638 11.499ZM467.342 3H455.656C454.189 3 453 4.189 453 5.656V8.534H457.303C458.233 7.219 459.766 6.36 461.498 6.36C463.232 6.36 464.765 7.218 465.693 8.534H469.998V5.656C469.998 4.189 468.806 3 467.342 3ZM468.641 6.281C468.641 6.542 468.426 6.756 468.166 6.756H466.742C466.48 6.756 466.268 6.543 466.268 6.281V4.858C466.268 4.597 466.48 4.383 466.742 4.383H468.166C468.426 4.383 468.641 4.596 468.641 4.858V6.281ZM464.66 11.499C464.66 9.752 463.245 8.336 461.498 8.336C459.753 8.336 458.336 9.753 458.336 11.499C458.336 13.245 459.753 14.66 461.498 14.66C463.245 14.66 464.66 13.245 464.66 11.499Z" fill="black"/>
</g>
<defs>
<clipPath id="clip0_1_146">
<rect width="17" height="17" fill="white" transform="translate(288 3)"/>
</clipPath>
<clipPath id="clip1_1_146">
<rect width="18" height="18" fill="white" transform="translate(329 2)"/>
</clipPath>
<clipPath id="clip2_1_146">
<rect width="17" height="17" fill="white" transform="translate(412 3)"/>
</clipPath>
<clipPath id="clip3_1_146">
<rect width="17" height="17" fill="white" transform="translate(453 3)"/>
</clipPath>
</defs>
</svg>
